<?xml version="1.0" standalone="no"?>
<!DOCTYPE svg PUBLIC "-//W3C//DTD SVG 20010904//EN"
 "http://www.w3.org/TR/2001/REC-SVG-20010904/DTD/svg10.dtd">
<svg version="1.0" xmlns="http://www.w3.org/2000/svg"
 width="1280.000000pt" height="1280.000000pt" viewBox="0 0 1280.000000 1280.000000"
 preserveAspectRatio="xMidYMid meet">
<metadata>
Created by potrace 1.14, written by Peter Selinger 2001-2017
</metadata>
<g transform="translate(0.000000,1280.000000) scale(0.100000,-0.100000)"
fill="#000000" stroke="none">
<path d="M6058 12795 c-2 -2 -44 -6 -93 -9 -50 -3 -108 -8 -130 -11 -22 -2
-62 -7 -90 -10 -83 -10 -168 -22 -205 -30 -14 -3 -43 -7 -65 -10 -22 -3 -71
-12 -110 -20 -38 -9 -81 -18 -95 -20 -14 -2 -37 -8 -51 -13 -15 -6 -29 -8 -32
-5 -3 3 -12 1 -19 -3 -7 -5 -17 -9 -23 -11 -199 -43 -521 -153 -787 -267 -21
-9 -41 -17 -45 -17 -5 -1 -20 -10 -35 -21 -16 -11 -28 -17 -28 -14 0 6 -191
-91 -305 -154 -86 -47 -239 -143 -246 -153 -3 -5 -9 -8 -13 -8 -10 2 -283
-184 -306 -209 -3 -3 -23 -18 -45 -34 -22 -16 -47 -35 -55 -43 -8 -7 -49 -41
-90 -75 -41 -35 -95 -81 -120 -103 -71 -62 -370 -364 -425 -429 -27 -32 -55
-64 -61 -70 -25 -27 -175 -219 -205 -263 -18 -26 -41 -57 -51 -67 -10 -11 -18
-26 -18 -33 0 -7 -4 -13 -8 -13 -5 0 -17 -16 -28 -35 -10 -19 -21 -35 -25 -35
-4 0 -12 -13 -18 -28 -6 -15 -23 -40 -36 -56 -14 -16 -22 -32 -20 -36 3 -5 1
-10 -4 -12 -28 -10 -242 -415 -339 -643 -98 -231 -220 -584 -224 -652 -1 -7
-5 -13 -10 -13 -5 0 -7 -4 -4 -8 3 -5 -4 -42 -15 -83 -11 -41 -22 -85 -24 -99
-2 -14 -7 -36 -10 -50 -3 -14 -7 -36 -10 -50 -3 -14 -7 -36 -10 -50 -3 -14 -7
-38 -10 -55 -3 -16 -7 -43 -10 -60 -3 -16 -8 -48 -11 -70 -3 -22 -7 -51 -10
-65 -2 -14 -6 -50 -10 -80 -3 -30 -7 -66 -9 -80 -26 -154 -26 -888 0 -1100 2
-19 6 -66 9 -105 3 -38 8 -81 10 -95 3 -14 7 -54 11 -90 4 -36 8 -78 11 -95 2
-16 6 -48 8 -70 2 -22 7 -47 10 -55 3 -8 8 -33 10 -55 9 -66 16 -118 22 -145
3 -14 7 -38 10 -55 3 -16 7 -41 10 -55 3 -14 8 -38 11 -55 8 -46 11 -60 13
-60 1 0 3 -11 6 -25 3 -19 19 -96 29 -140 0 -3 4 -14 8 -25 3 -11 9 -37 11
-58 3 -21 9 -44 15 -51 6 -7 8 -16 5 -19 -4 -3 1 -24 10 -47 9 -22 14 -40 11
-40 -2 0 2 -18 10 -40 8 -22 12 -40 9 -40 -2 0 0 -8 5 -18 6 -11 12 -30 14
-43 5 -26 21 -79 68 -224 16 -50 29 -98 29 -108 0 -9 5 -17 12 -17 6 0 9 -3 6
-6 -4 -3 7 -42 23 -87 17 -45 31 -86 32 -92 2 -5 6 -16 10 -22 5 -7 5 -13 1
-13 -3 0 -2 -6 3 -12 6 -7 16 -34 24 -60 7 -27 17 -48 21 -48 4 0 8 -9 8 -20
0 -11 4 -28 9 -38 5 -9 13 -28 18 -42 6 -14 20 -46 32 -71 11 -25 21 -49 21
-52 0 -8 85 -207 116 -270 13 -28 24 -57 24 -64 0 -7 5 -13 10 -13 6 0 9 -3 8
-7 -1 -5 17 -48 40 -97 23 -49 42 -93 42 -97 0 -5 5 -9 10 -9 6 0 9 -3 8 -7
-1 -5 6 -24 17 -43 11 -19 20 -37 20 -40 1 -3 14 -30 29 -60 26 -49 44 -82
122 -225 12 -22 39 -71 59 -109 21 -38 43 -76 51 -84 8 -7 14 -18 14 -24 0 -5
14 -30 30 -55 17 -24 39 -61 50 -81 12 -20 28 -49 38 -64 9 -15 35 -55 56 -90
52 -84 296 -450 310 -464 6 -7 37 -51 70 -98 32 -47 63 -86 67 -86 5 0 9 -6 9
-13 0 -7 8 -22 17 -33 10 -10 38 -46 62 -79 25 -33 47 -62 51 -65 3 -3 17 -21
30 -40 13 -19 29 -40 35 -46 5 -6 21 -26 35 -45 14 -18 35 -44 47 -57 13 -12
23 -25 23 -27 0 -4 134 -167 173 -211 7 -7 23 -27 37 -45 14 -17 34 -41 45
-53 11 -13 47 -53 80 -91 33 -38 71 -81 85 -96 14 -15 54 -59 90 -99 225 -250
586 -606 880 -870 46 -41 96 -86 111 -100 15 -14 44 -38 64 -55 20 -16 44 -37
53 -45 9 -9 46 -40 82 -70 36 -30 73 -61 82 -70 9 -8 23 -20 30 -25 102 -81
164 -131 168 -135 3 -4 23 -19 45 -35 22 -17 42 -32 45 -36 9 -10 274 -205
340 -250 36 -24 67 -47 68 -51 2 -5 10 -8 18 -8 8 0 14 -4 14 -8 0 -8 86 -47
144 -66 43 -15 164 -18 220 -6 90 18 131 38 251 120 12 8 45 31 74 50 28 19
51 38 51 42 0 5 5 8 11 8 10 0 46 26 89 63 8 7 31 24 50 37 19 13 37 27 40 30
3 3 46 37 95 75 50 38 95 74 101 80 6 5 29 24 50 40 21 17 57 46 79 65 23 19
63 53 89 75 69 57 128 108 146 125 9 8 34 30 55 49 67 57 185 163 243 219 30
28 57 52 60 52 2 0 133 129 291 288 289 290 444 454 572 606 13 15 34 39 46
52 12 13 54 63 95 111 40 48 83 98 95 110 13 12 23 25 23 28 0 3 24 34 53 68
77 92 116 141 178 226 31 42 66 86 77 98 10 11 34 44 52 72 19 28 37 51 42 51
4 0 8 5 8 10 0 6 4 16 10 23 34 42 64 84 125 172 38 55 72 102 77 103 4 2 8 9
8 16 0 7 8 21 18 32 9 10 23 31 31 47 8 15 18 27 23 27 4 0 8 4 8 10 0 5 24
45 53 89 87 134 125 196 125 205 0 5 4 12 9 15 5 3 35 51 67 106 32 55 66 111
74 125 9 14 14 26 11 26 -2 1 3 10 12 20 18 22 75 124 133 239 23 44 44 83 49
86 5 3 9 12 11 20 1 8 15 39 31 69 16 30 28 58 27 63 -1 4 2 7 8 7 5 0 10 4
10 9 0 5 29 71 65 146 36 75 65 138 65 140 0 2 13 32 29 67 33 71 60 136 60
143 0 3 7 18 15 33 43 85 261 686 270 747 1 6 4 15 8 20 3 6 9 26 14 45 4 19
9 37 9 40 18 63 27 101 25 106 -1 4 2 10 7 13 9 6 20 46 98 376 3 11 7 31 10
45 2 14 16 78 29 142 14 64 28 136 31 160 4 23 11 66 16 93 5 28 12 70 15 95
3 25 7 53 10 62 3 10 7 41 9 70 3 29 7 64 10 78 6 27 11 68 20 170 3 36 8 94
12 130 3 36 6 91 7 122 1 32 3 58 6 58 7 0 10 137 10 440 0 221 -4 385 -10
385 -1 0 -3 23 -5 51 -2 28 -6 73 -9 100 -15 130 -17 151 -22 174 -2 14 -7 48
-10 75 -3 28 -8 53 -11 58 -2 4 -6 24 -8 45 -3 20 -7 46 -9 57 -3 11 -14 63
-25 115 -37 170 -87 351 -139 500 -11 30 -20 57 -20 60 0 3 -6 19 -12 35 -21
54 -52 140 -57 158 -3 9 -8 17 -12 17 -4 0 -7 8 -8 18 -2 21 -30 85 -132 297
-37 77 -68 144 -68 149 -1 5 -5 12 -10 15 -4 3 -19 26 -32 51 -47 88 -174 295
-182 298 -5 2 -9 8 -9 13 0 5 -22 40 -50 79 -27 38 -47 70 -42 70 4 0 2 4 -4
8 -6 4 -45 53 -87 109 -182 243 -437 520 -656 713 -41 36 -80 71 -87 78 -7 6
-18 12 -24 12 -6 0 -9 4 -6 8 3 4 -13 19 -35 32 -21 14 -39 27 -39 31 0 3 -21
21 -47 40 -51 36 -77 56 -98 77 -8 6 -17 12 -21 12 -4 0 -17 9 -28 19 -12 11
-86 62 -166 115 -80 52 -150 100 -157 106 -7 5 -15 10 -19 10 -3 0 -32 15 -63
34 -148 90 -480 256 -510 256 -6 0 -11 5 -11 10 0 6 -11 10 -25 10 -14 0 -25
5 -25 10 0 6 -6 10 -12 10 -7 0 -47 14 -88 31 -72 29 -417 148 -449 154 -9 2
-36 8 -61 15 -25 7 -46 12 -47 12 -2 -1 -24 5 -50 13 -27 7 -61 16 -78 18 -16
3 -42 10 -56 15 -15 6 -29 9 -31 6 -3 -2 -18 0 -34 5 -16 6 -48 12 -72 15 -24
3 -46 7 -50 10 -4 2 -29 7 -57 10 -85 12 -119 17 -145 21 -14 3 -43 7 -65 9
-115 12 -165 18 -210 22 -60 6 -652 14 -657 9z m417 -1001 c83 -1 286 -14 294
-18 3 -2 33 -6 66 -10 33 -3 74 -9 90 -12 17 -3 44 -7 60 -9 17 -1 30 -4 30
-5 0 -2 19 -6 68 -14 43 -7 175 -35 195 -41 7 -3 14 -5 17 -6 47 -11 182 -51
220 -64 28 -9 57 -18 65 -20 23 -6 239 -89 295 -115 28 -12 75 -33 105 -47 30
-14 57 -24 59 -23 2 1 7 -2 10 -7 3 -4 31 -20 61 -36 30 -15 87 -45 125 -67
39 -22 77 -43 85 -47 8 -4 20 -10 25 -15 32 -25 270 -178 277 -178 4 0 8 -3 8
-8 0 -4 27 -27 60 -51 34 -25 71 -54 84 -65 13 -12 45 -39 71 -61 149 -125
323 -298 445 -445 25 -29 53 -62 63 -72 9 -10 17 -22 17 -27 0 -5 3 -11 8 -13
25 -11 213 -282 305 -438 94 -162 224 -423 219 -442 -1 -5 3 -8 9 -8 5 0 8 -4
4 -9 -3 -5 -1 -12 3 -15 5 -3 15 -26 22 -51 7 -25 16 -45 19 -45 4 0 7 -10 8
-22 1 -11 6 -24 10 -27 4 -3 8 -10 8 -16 0 -5 15 -53 33 -106 18 -52 35 -104
37 -115 3 -10 23 -86 44 -169 21 -82 41 -168 45 -190 3 -22 8 -51 11 -65 11
-52 22 -127 40 -276 18 -153 27 -577 13 -606 -5 -11 -5 -18 1 -18 6 0 8 -6 5
-13 -2 -7 -7 -49 -9 -93 -11 -219 -24 -372 -34 -401 -1 -2 -16 6 -33 17 -18
11 -51 29 -72 41 -21 11 -44 25 -50 30 -6 5 -85 55 -176 110 -154 95 -191 117
-251 151 -13 7 -26 15 -29 18 -12 12 -112 70 -121 70 -5 0 -9 5 -9 10 0 6 -7
10 -15 10 -8 0 -15 4 -15 9 0 5 -8 11 -17 14 -17 5 -64 32 -88 50 -5 4 -48 31
-95 60 l-85 52 -1 393 c0 268 3 392 10 392 8 0 8 3 0 8 -6 4 -10 80 -11 207
-1 110 -4 214 -7 230 -22 138 -127 282 -254 348 -172 91 -359 81 -522 -28 -38
-24 -76 -64 -135 -137 -9 -11 -35 -63 -40 -78 -1 -3 -5 -13 -9 -22 -4 -9 -9
-25 -11 -35 -2 -10 -4 -18 -5 -18 -9 0 -12 -86 -14 -339 -2 -222 -5 -301 -14
-304 -7 -2 -12 1 -12 6 0 5 -8 12 -17 16 -10 3 -31 15 -48 26 -16 11 -39 24
-50 30 -11 6 -33 19 -50 30 -16 11 -45 27 -62 37 -18 9 -33 20 -33 25 0 4 -4
8 -10 8 -5 0 -64 34 -131 75 -66 41 -125 75 -130 75 -5 0 -9 4 -9 8 0 5 -15
16 -32 25 -41 22 -90 51 -298 179 -58 35 -127 77 -153 94 -27 16 -71 43 -97
60 -27 18 -51 29 -54 26 -3 -3 -6 0 -6 6 0 7 -4 12 -9 12 -5 0 -32 15 -60 33
-28 17 -73 46 -101 62 -29 17 -58 36 -65 43 -8 6 -17 12 -20 12 -4 0 -39 20
-79 44 -101 63 -183 89 -281 89 -129 0 -204 -29 -415 -163 -25 -16 -63 -38
-85 -50 -21 -12 -50 -30 -63 -41 -14 -10 -31 -19 -38 -19 -8 0 -14 -4 -14 -9
0 -5 -8 -11 -17 -15 -10 -3 -36 -17 -58 -31 -22 -14 -50 -31 -62 -37 -13 -6
-23 -15 -23 -20 0 -4 -5 -8 -11 -8 -6 0 -69 -36 -141 -80 -71 -44 -134 -80
-139 -80 -5 0 -9 -4 -9 -10 0 -5 -7 -10 -15 -10 -8 0 -15 -5 -15 -11 0 -5 -4
-8 -8 -5 -5 3 -18 -4 -30 -14 -12 -11 -24 -20 -26 -20 -3 0 -81 -46 -173 -102
-91 -57 -169 -101 -171 -100 -3 2 -8 -1 -11 -6 -8 -12 -189 -122 -202 -122 -5
0 -12 -7 -15 -15 -4 -8 -10 -12 -15 -9 -5 3 -9 0 -9 -5 0 -6 -4 -11 -9 -11 -5
0 -38 -18 -72 -40 -76 -47 -168 -102 -189 -113 -8 -4 -27 -15 -41 -25 -15 -9
-53 -32 -85 -51 -33 -19 -60 -38 -62 -43 -2 -4 -9 -8 -15 -8 -7 -1 -57 -30
-112 -65 -55 -36 -117 -73 -137 -82 -21 -10 -38 -21 -38 -25 0 -5 -7 -8 -15
-8 -8 0 -15 -4 -15 -8 0 -4 -19 -18 -42 -30 -24 -12 -61 -33 -83 -47 -22 -14
-56 -34 -75 -45 -19 -11 -66 -41 -105 -65 -38 -25 -82 -50 -97 -56 -16 -6 -28
-14 -28 -18 0 -4 -15 -15 -32 -24 -18 -10 -49 -27 -68 -38 -71 -44 -89 -55
-132 -80 -23 -14 -115 -70 -203 -124 -88 -54 -169 -103 -180 -109 -11 -6 -39
-24 -62 -39 -24 -15 -45 -27 -47 -27 -3 0 -25 -13 -49 -30 -25 -16 -50 -30
-56 -30 -6 0 -11 20 -12 48 -1 26 -2 58 -4 72 -7 58 -18 210 -18 273 -1 37 -5
67 -10 67 -4 0 -5 5 -1 12 8 13 9 152 0 166 -2 4 -1 14 4 22 4 7 5 23 0 34 -4
12 -4 30 0 41 4 11 4 30 -1 43 -5 12 -5 22 -1 22 4 0 7 28 8 63 1 58 10 182
19 252 2 17 7 50 10 75 3 25 7 54 9 65 2 11 7 40 10 65 8 62 23 135 26 135 1
0 4 11 6 25 5 30 12 64 14 68 2 1 3 10 4 20 1 9 5 27 9 39 4 12 10 32 13 45 6
26 6 27 23 88 7 25 15 53 17 63 2 11 8 25 15 33 6 8 9 14 6 14 -7 0 62 198 93
266 12 27 23 54 24 59 7 30 138 299 150 307 6 4 8 8 4 8 -4 0 7 24 24 53 17
28 40 67 50 86 11 19 35 59 54 88 19 29 34 57 34 62 0 5 4 11 8 13 5 2 28 32
52 68 24 36 47 67 52 68 4 2 8 8 8 13 0 10 8 21 40 58 8 9 34 42 58 74 42 56
79 99 135 159 15 16 27 31 27 34 0 13 289 291 385 370 33 27 69 57 80 66 11 9
47 37 80 62 33 25 65 49 70 53 14 11 168 112 230 151 28 17 55 35 60 39 6 5
28 17 50 28 22 11 43 24 46 28 3 5 13 9 21 11 9 1 22 7 29 13 20 17 250 125
354 167 50 20 97 40 105 45 9 5 31 12 50 16 19 4 40 11 45 15 8 6 164 58 200
66 6 2 19 5 30 7 11 3 39 12 62 20 24 8 40 11 37 6 -2 -5 11 -2 31 6 19 9 35
13 35 10 0 -4 6 -3 13 2 6 4 21 9 32 11 34 5 60 10 60 12 0 1 11 3 25 5 14 1
39 5 55 9 17 3 39 8 50 10 19 4 87 14 145 21 14 2 50 6 80 9 30 3 75 8 100 11
25 3 121 8 214 10 93 3 172 7 174 10 3 3 8 2 11 -2 3 -5 38 -8 76 -9z m-147
-3429 c20 -14 42 -25 49 -25 7 0 13 -5 13 -11 0 -5 14 -15 30 -20 17 -6 30
-15 30 -21 0 -5 4 -7 8 -4 5 3 18 -2 28 -12 20 -17 32 -24 103 -64 20 -11 38
-23 41 -27 3 -3 19 -13 35 -21 17 -8 32 -18 35 -21 3 -3 39 -25 80 -50 41 -24
77 -46 80 -49 7 -7 39 -26 88 -51 23 -13 42 -26 42 -30 0 -4 6 -9 13 -11 7 -2
79 -43 160 -93 81 -49 156 -94 167 -100 11 -5 20 -13 20 -17 0 -5 5 -8 10 -8
6 0 37 -17 68 -37 31 -21 71 -44 87 -52 17 -8 32 -18 35 -21 8 -8 43 -29 68
-40 12 -5 22 -15 22 -21 0 -7 3 -10 6 -6 4 3 25 -6 48 -22 22 -15 48 -31 56
-34 17 -8 53 -30 60 -37 12 -12 112 -70 121 -70 5 0 9 -4 9 -10 0 -5 4 -10 9
-10 12 0 115 -63 119 -72 2 -5 8 -8 12 -8 7 0 128 -71 220 -130 8 -5 40 -24
70 -42 30 -17 57 -35 60 -38 3 -4 46 -30 95 -59 50 -29 119 -70 154 -92 34
-21 67 -39 72 -39 5 0 9 -4 9 -8 0 -5 15 -16 33 -25 17 -10 46 -26 62 -37 17
-11 37 -23 45 -27 8 -4 40 -23 70 -42 59 -38 249 -155 290 -178 14 -8 37 -22
52 -31 42 -26 370 -227 397 -243 14 -8 30 -18 35 -22 6 -4 59 -37 119 -73 114
-70 118 -76 87 -133 -6 -12 -8 -21 -6 -21 3 0 -1 -18 -9 -40 -8 -22 -12 -40
-9 -40 2 0 0 -9 -6 -21 -6 -11 -13 -28 -15 -37 -2 -9 -9 -30 -16 -47 -6 -16
-13 -37 -14 -45 -3 -18 -71 -216 -84 -245 -23 -50 -39 -103 -34 -109 4 -3 1
-6 -5 -6 -6 0 -14 -16 -18 -35 -3 -19 -10 -35 -14 -35 -4 0 -13 -19 -20 -42
-7 -24 -20 -61 -31 -83 -18 -40 -51 -116 -54 -125 -34 -98 -258 -546 -375
-750 -23 -41 -51 -89 -61 -107 -10 -17 -29 -50 -43 -72 -15 -22 -26 -45 -26
-50 0 -5 -3 -11 -7 -13 -10 -4 -73 -107 -73 -119 0 -5 -4 -9 -9 -9 -5 0 -14
-14 -21 -30 -7 -17 -16 -30 -20 -30 -4 0 -10 -8 -14 -17 -5 -18 -26 -53 -36
-63 -3 -3 -43 -61 -89 -130 -47 -69 -92 -135 -100 -146 -9 -12 -23 -32 -31
-44 -57 -85 -390 -521 -420 -550 -3 -3 -39 -45 -80 -95 -41 -49 -79 -95 -85
-101 -5 -6 -26 -31 -46 -55 -21 -24 -52 -60 -70 -80 -19 -20 -51 -56 -73 -80
-193 -220 -588 -616 -851 -854 -165 -148 -204 -183 -312 -273 -57 -47 -103
-89 -103 -94 0 -4 -5 -8 -11 -8 -6 0 -49 -32 -97 -70 -48 -39 -98 -80 -112
-91 -14 -11 -38 -32 -55 -45 -46 -39 -73 -47 -92 -28 -9 9 -41 34 -72 57 -31
23 -58 44 -61 47 -3 4 -39 33 -80 66 -41 32 -80 64 -86 69 -6 6 -28 24 -49 40
-41 32 -73 60 -207 178 -48 42 -89 77 -91 77 -2 0 -29 24 -59 53 -31 28 -104
97 -164 152 -139 128 -462 452 -584 585 -52 57 -111 121 -130 142 -30 32 -91
102 -125 142 -5 6 -28 32 -50 57 -22 25 -59 67 -81 95 -23 27 -50 59 -60 71
-11 11 -26 31 -34 43 -8 12 -22 29 -30 38 -8 8 -52 63 -98 121 -45 58 -89 114
-97 124 -8 9 -15 19 -15 22 0 3 -8 13 -17 23 -10 11 -26 30 -35 43 -27 39 -96
132 -112 154 -48 63 -56 74 -56 84 0 6 -3 11 -7 11 -5 0 -24 25 -43 55 -19 30
-38 55 -42 55 -5 0 -8 4 -8 9 0 12 -61 105 -72 109 -4 2 -8 8 -8 13 0 6 -22
43 -50 84 -27 41 -50 76 -50 79 0 2 -22 39 -50 80 -27 42 -50 78 -50 82 0 3
-8 18 -19 32 -10 15 -33 54 -51 87 -18 33 -37 63 -44 67 -6 4 -8 8 -4 8 4 0
-22 51 -56 113 -106 190 -228 437 -319 647 -45 104 -69 160 -72 170 -1 3 -8
22 -17 42 -9 20 -27 65 -39 100 -12 35 -26 67 -31 72 -4 6 -8 16 -8 22 0 7 -5
25 -11 41 -6 15 -10 30 -11 33 0 3 -3 10 -7 15 -9 11 -25 66 -23 78 1 4 -3 7
-9 7 -5 0 -7 5 -4 10 3 6 3 16 -2 23 -4 6 -9 17 -10 22 -1 6 -12 37 -23 70
-12 33 -24 71 -26 84 -3 14 -7 28 -10 33 -3 4 -7 16 -9 25 -2 10 -15 56 -29
103 l-26 85 28 22 c15 13 31 23 35 23 5 0 28 14 52 30 24 17 46 30 50 30 3 0
20 10 38 22 60 40 82 54 127 79 25 13 50 29 57 35 6 6 25 17 42 24 17 7 31 16
31 21 0 5 4 9 10 9 8 0 184 104 270 160 8 5 44 27 78 47 98 58 107 63 272 165
155 95 687 419 725 441 11 7 35 22 53 35 17 13 32 20 32 16 0 -4 8 0 18 8 9 9
31 23 47 32 17 9 42 24 57 34 15 9 64 39 110 67 46 27 102 62 124 77 23 15 46
28 51 28 6 0 23 11 39 25 16 14 32 25 35 25 3 0 46 25 95 55 49 30 116 71 149
90 94 56 238 144 255 155 8 6 23 13 33 16 9 4 17 10 17 14 0 4 8 11 18 14 9 3
26 12 37 19 26 15 194 118 220 134 11 7 27 15 35 19 8 4 17 11 20 14 5 6 138
87 170 102 8 5 53 32 100 62 47 30 86 55 88 55 2 1 20 -10 40 -24z"/>
<path d="M6928 6355 c-4 -4 -24 -8 -45 -9 -41 -3 -106 -33 -138 -64 -75 -74
-83 -119 -81 -467 2 -248 4 -274 23 -315 25 -56 64 -95 124 -126 46 -23 52
-23 346 -23 203 0 312 3 338 12 24 7 60 32 92 63 77 76 80 93 78 439 l-1 290
-28 55 c-33 65 -92 114 -156 130 -29 7 -133 10 -293 8 -136 -2 -248 1 -250 5
-1 5 -5 5 -9 2z"/>
<path d="M5109 6335 c-26 -8 -62 -31 -85 -53 -45 -44 -67 -72 -59 -72 3 0 1
-8 -4 -18 -18 -34 -21 -74 -20 -277 0 -110 0 -209 0 -220 -2 -80 -1 -106 5
-136 3 -19 7 -39 8 -44 3 -19 45 -80 68 -100 13 -11 43 -30 68 -42 43 -20 59
-21 341 -22 319 -2 347 2 415 54 31 24 74 83 78 108 1 6 4 17 8 22 3 6 6 34 5
63 0 29 3 55 6 59 4 3 2 14 -4 24 -6 11 -6 19 0 19 5 0 6 14 1 35 -4 20 -4 38
1 41 5 3 5 13 -1 25 -6 11 -7 19 -1 19 5 0 6 14 1 35 -4 20 -4 38 1 41 5 3 5
13 -1 25 -6 11 -7 19 -1 19 5 0 6 14 1 35 -4 20 -4 38 1 41 5 3 5 13 -1 25 -6
10 -7 19 -2 19 9 0 9 13 -3 85 -13 78 -62 140 -140 179 -50 25 -50 25 -345 25
-226 0 -306 -3 -341 -14z"/>
<path d="M5229 4606 c-2 -2 -27 -6 -54 -9 -145 -14 -240 -125 -235 -275 1 -26
1 -51 1 -57 -5 -34 0 -430 5 -461 15 -97 111 -193 199 -198 17 -2 37 -6 45
-11 9 -5 15 -4 18 3 2 7 8 9 14 6 15 -9 98 -10 98 -1 0 5 5 5 11 1 15 -9 138
-11 132 -2 -2 5 6 4 19 0 26 -9 60 -8 77 2 6 4 11 3 11 -3 0 -6 11 -6 30 -1
17 5 30 6 30 2 0 -4 11 -7 25 -7 14 0 25 4 25 8 0 4 8 3 19 -2 10 -6 21 -7 25
-4 4 4 12 8 19 9 33 5 90 36 121 67 44 44 67 89 70 138 1 21 5 42 9 45 3 4 2
15 -4 25 -6 11 -6 19 0 19 5 0 6 14 1 35 -4 20 -4 38 1 41 5 3 5 13 -1 25 -6
11 -7 19 -1 19 5 0 6 14 1 35 -4 20 -4 38 1 41 5 3 5 13 -1 25 -8 14 -7 19 1
19 9 0 9 3 0 14 -8 10 -9 16 -1 21 7 4 7 12 0 26 -6 11 -7 19 -1 19 5 0 6 14
1 35 -4 20 -4 38 1 41 5 3 5 13 -1 25 -6 10 -7 19 -2 19 13 0 -12 101 -33 136
-39 62 -104 107 -170 117 -11 1 -25 6 -32 10 -6 4 -14 3 -18 -2 -3 -7 -15 -7
-29 -1 -13 5 -26 7 -28 5 -5 -5 -64 -7 -110 -3 -20 2 -34 -1 -31 -5 3 -5 -3
-6 -14 -3 -19 6 -50 7 -170 5 -28 -1 -56 1 -61 5 -5 3 -11 4 -13 2z"/>
<path d="M6875 4600 c-4 -6 -13 -9 -21 -6 -8 3 -14 1 -14 -5 0 -6 -7 -9 -15
-5 -8 3 -15 1 -15 -5 0 -5 -12 -15 -27 -20 -38 -14 -83 -71 -103 -128 -13 -39
-15 -97 -15 -341 1 -350 5 -363 110 -449 19 -15 105 -43 105 -34 0 3 7 0 15
-7 11 -9 15 -9 15 -1 0 8 5 9 17 2 10 -5 26 -5 39 -1 12 5 24 7 27 4 8 -8 95
-10 90 -2 -2 5 7 4 21 -2 18 -6 26 -6 26 1 0 6 5 7 11 4 15 -10 99 -11 99 -2
0 5 5 5 11 2 15 -10 78 -12 73 -3 -3 5 6 4 20 -2 17 -6 27 -6 32 1 4 7 10 7
18 0 7 -6 15 -9 17 -7 2 2 21 7 42 10 83 13 153 67 190 146 19 42 21 63 22
340 1 351 -1 362 -85 446 -29 30 -55 42 -128 59 -32 8 -50 9 -46 3 4 -6 -1 -8
-13 -4 -11 3 -42 6 -69 6 -27 0 -71 0 -99 0 -27 0 -67 0 -88 0 -22 0 -43 -2
-48 -5 -5 -3 -18 -1 -29 5 -14 8 -20 8 -20 0 0 -6 -5 -8 -12 -4 -10 7 -41 7
-108 1 -14 -2 -28 1 -31 6 -4 5 -10 4 -14 -3z"/>
</g>
</svg>
